<svg version="1.1" xmlns="http://www.w3.org/2000/svg" xmlns:xlink="http://www.w3.org/1999/xlink" width="81.6" height="103.38315" viewBox="0,0,81.6,103.38315"><g transform="translate(-200,-127.60593)"><g data-paper-data="{&quot;isPaintingLayer&quot;:true}" fill-rule="nonzero" stroke-linejoin="miter" stroke-miterlimit="10" stroke-dasharray="" stroke-dashoffset="0" style="mix-blend-mode: normal"><path d="M207.5,142.5l4.2,13l2.4,4l2.25,3l1.85,1.3h2.5l1.8,-0.4l1.6,-0.9l2.1,-2.2l2,-2.65l4.5,-6.35l1.8,7.85l2.35,5.35l1.5,1.3l1.65,0.5l2.5,-0.4l2.7,-2l3,-3.25l2.5,-3.85l2.15,-3.3l1.65,3.65l2.2,3.35l2,2l1.65,1l1.65,0.4l1.5,-0.75l1.6,-1.5l1.4,-2.35l1.85,-3.65l1.65,-5.25l2.7,-13.5v16.4l0.5,10.2l1.4,7.35l2.9,11.4l2.2,8l1,5.4l0.4,4.6l-0.25,5.25l-1.85,5.5l-3.8,5.6l-4.95,4.25l-4.6,3.4l-5.65,2.75l-4.75,2l-6.75,1.25l-5.15,0.5l-8.2,-0.1l-7.15,-1.15l-5.35,-1.25l-7.8,-2.75l-5.25,-3.85l-4.75,-4.65l-1.85,-3.15l-1.9,-4l-1.1,-5.5l0.7,-8.2l0.5,-7.4l0.9,-4.1l2.9,-10l1.7,-7.65l1,-6.7z" id="ID0.8051680410280824" fill="#ff9900" stroke="none" stroke-width="1" stroke-linecap="round"/><path d="M240.25,175.25c6.238,-0.255 11.303,-12.509 16.45,-9c7.731,5.272 8.807,17.264 9.25,26.75c0.35,6.979 -2.029,14.904 -7,20c-4.585,4.699 -12.135,6.329 -18.7,6.25c-6.663,-0.082 -14.006,-1.822 -18.8,-6.25c-4.617,-4.504 -6.894,-11.747 -6.75,-18c0.223,-9.592 0.28,-21.933 7.75,-27.75c5.104,-3.968 11.391,8.261 17.8,8z" id="ID0.6527745272032917" fill="#ffcc00" stroke="none" stroke-width="1" stroke-linecap="round"/><path d="M272.75,143.25c0,0 -0.222,12.451 0.25,18.5c0.31,3.972 1.383,7.862 2.25,11.75c1.646,7.386 4.489,14.792 5.35,22.5c0.488,4.601 0.597,9.597 -1.35,14c-2.175,4.912 -6.263,9.102 -10.5,12.25c-4.695,3.488 -10.345,6.018 -16,7.25c-7.163,1.4 -14.593,1.566 -21.75,0.5c-6.691,-0.997 -13.654,-2.882 -19.25,-6.75c-4.728,-3.072 -8.843,-7.87 -10.5,-13.25c-2,-6.508 -0.846,-13.443 0,-20c1.081,-8.277 4.509,-16.2 5.75,-24.25c0.888,-5.765 0.75,-17.5 0.75,-17.5" id="ID0.3157221209257841" fill="none" stroke="#cc7a00" stroke-width="2" stroke-linecap="round"/><path d="M251.5,155.5c0,0 -2.658,4.774 -4.5,6.75c-1.614,1.632 -3.445,3.432 -5.7,3.9c-1.593,0.33 -3.625,-0.533 -4.5,-1.9c-2.015,-3.16 -3.5,-10.6 -3.5,-10.6" id="ID0.767959822434932" fill="none" stroke="#cc7a00" stroke-width="2" stroke-linecap="round"/><path d="M271.15,144.75c0,0 -1.822,9.089 -3.75,13.25c-1.082,2.333 -2.641,5.015 -5.1,5.75c-1.839,0.554 -3.672,-1.3 -5,-2.6c-1.524,-1.492 -3.5,-5.5 -3.5,-5.5" id="ID0.010848884005099535" fill="none" stroke="#cc7a00" stroke-width="2" stroke-linecap="round"/><path d="M250.7729,156.7358l1.9539,-3.3447l1.6243,3.3123" id="ID0.20043117739260197" fill="none" stroke="#cc7a00" stroke-width="2" stroke-linecap="round"/><path d="M270.5,147.85l2.2,-10.55v9.4" id="ID0.05340155912563205" fill="none" stroke="#cc7a00" stroke-width="2" stroke-linecap="round"/><path d="M233.9,156.35l-1.2,-5.05l-1.8,2.7c0,0 -4,6.45 -7.1,8.65c-1.75,1.2 -4.6,1.5 -6.3,0.5c-2.65,-1.6 -4.028,-4.689 -5.5,-7.4c-1.199,-2.178 -2.5,-6.95 -2.5,-6.95" id="ID0.4880300755612552" fill="none" stroke="#cc7a00" stroke-width="2" stroke-linecap="round"/><path d="M207.75,150.95l-0.05,-8.55l2.45,8.7" id="ID0.4365665796212852" fill="none" stroke="#cc7a00" stroke-width="2" stroke-linecap="round"/><path d="M224.875,170.25c1.552,0 2.8,0.999 3.976,1.868c1.103,0.818 2.868,1.539 2.849,2.882c-0.046,2.559 -1.172,5.405 -3.1,7.25c-1.259,1.152 -3.528,1.13 -5.25,0.6c-1.983,-0.617 -3.676,-2.158 -4.85,-3.95c-1.601,-2.453 -3.64,-6.13 -2.95,-8.3c0.427,-1.326 3.529,1.643 5.349,1.518c1.457,-0.1 2.424,-1.868 3.976,-1.868z" id="ID0.7029312918893993" fill="#ff9900" stroke="none" stroke-width="1" stroke-linecap="round"/><path d="M246.05,166.922c0,0.014 0,0.032 0,0.053c0,0.021 0,0.039 0,0.053c0,0.014 0,0.022 0,0.022c0,0 0,-0.008 0,-0.022c0,-0.014 0,-0.032 0,-0.053c0,-0.021 0,-0.039 0,-0.053c0,-0.014 0,-0.022 0,-0.022c0,0 0,0.008 0,0.022z" id="ID0.6805840753950179" fill="#00ffff" stroke="none" stroke-width="1" stroke-linecap="butt"/><path d="M243.2,171.5c2.036,-1.004 4.367,-5.35 5.5,-4.2c1.593,1.62 0.778,6.515 0.05,9.6c-0.634,2.447 -2.154,4.757 -3.983,6.385c-1.347,1.198 -3.318,1.879 -5.117,1.765c-1.996,-0.127 -4.142,-1.051 -5.55,-2.55c-2.331,-2.397 -4.802,-5.975 -5.2,-8.65c-0.167,-1.123 2.788,1.412 4.133,1.165c3.521,-0.655 6.922,-1.919 10.167,-3.515z" id="ID0.8438445287756622" fill="#ff9900" stroke="none" stroke-width="1" stroke-linecap="round"/><path d="M256.425,171.95c1.608,-0.889 2.834,-3.926 4.475,-3.35c1.86,0.657 2.578,3.582 2.55,5.6c-0.05,2.697 -1.187,5.458 -2.766,7.522c-1.095,1.43 -2.982,2.514 -4.784,2.528c-1.947,0.014 -4.258,-0.898 -5.4,-2.55c-1.736,-2.482 -3.04,-5.995 -2.5,-8.8c0.247,-1.28 2.731,0.91 4.166,0.728c1.511,-0.191 2.925,-0.941 4.259,-1.678z" id="ID0.6724397209472954" fill="#ff9900" stroke="none" stroke-width="1" stroke-linecap="round"/><path d="M240.1907,168.85c6.8069,-0.074 13.7275,-1.192 20.4992,-0.421c3.2637,0.372 8.7555,2.101 8.7555,3.446c0,1.345 -3.3473,2.564 -8.7555,3.446c-5.4082,0.883 -12.8773,1.429 -21.1195,1.429c-8.2423,0 -15.7113,-0.546 -21.1195,-1.429c-5.4082,-0.882 -8.7555,-2.101 -8.7555,-3.446c0,-1.345 5.4891,-3.086 8.7555,-3.446c7.119,-0.782 14.4771,0.347 21.7398,0.421z" id="ID0.5477020749822259" fill="#ff9900" stroke="#ff9900" stroke-width="2.32623" stroke-linecap="round"/><path d="M225.75,164.75c1.724,0 3.287,0.378 4.418,0.989c1.132,0.611 1.832,1.455 1.832,2.386c0,0.931 -0.7,1.775 -1.832,2.386c-1.131,0.611 -2.694,0.989 -4.418,0.989c-1.724,0 -3.287,-0.378 -4.418,-0.989c-1.132,-0.611 -1.832,-1.455 -1.832,-2.386c0,-0.931 0.7,-1.775 1.832,-2.386c1.131,-0.611 2.694,-0.989 4.418,-0.989z" id="ID0.4922326928935945" fill="#ff9900" stroke="none" stroke-width="1" stroke-linecap="butt"/><path d="M255.125,164c1.759,0 3.353,0.518 4.507,1.355c1.154,0.838 1.868,1.994 1.868,3.27c0,1.276 -0.714,2.432 -1.868,3.27c-1.154,0.837 -2.748,1.355 -4.507,1.355c-1.759,0 -3.353,-0.518 -4.507,-1.355c-1.154,-0.838 -1.868,-1.994 -1.868,-3.27c0,-1.276 0.714,-2.432 1.868,-3.27c1.154,-0.837 2.748,-1.355 4.507,-1.355z" id="ID0.04935593158006668" fill="#ff9900" stroke="none" stroke-width="1" stroke-linecap="round"/></g></g></svg>